# Blender 4.3.2
# www.blender.org
mtllib Asteroide2.mtl
o Icosphere
v -0.004049 -2.362453 0.017269
v 1.791863 -2.013770 1.346823
v -0.631691 -1.309844 2.938905
v -1.811936 -1.683637 -0.130593
v -0.576799 -1.210145 -2.529359
v 1.227938 -1.150019 -1.775598
v 0.341672 0.989331 3.321941
v -1.602295 0.948344 1.519638
v -1.377167 0.874350 -1.741865
v 0.394018 0.966110 -2.768682
v 2.220628 0.878844 -1.683988
v 0.222727 1.661005 -0.591651
v -0.367664 -2.197539 1.724210
v 0.874100 -2.406743 1.031052
v 0.301849 -2.596741 3.981719
v 1.953743 -1.558392 -0.486256
v 0.724585 -2.183012 -0.958359
v -0.999349 -2.175089 0.007060
v -1.510617 -1.682668 1.814943
v -0.321608 -2.062927 -1.511206
v -1.229988 -1.269130 -1.468139
v 0.206906 -1.610927 -2.730099
v 2.221003 -0.631670 -0.000258
v 1.855374 -0.062314 -1.501564
v -0.289746 -0.378897 4.435312
v 1.080684 -0.500990 2.717059
v -1.788801 -0.118308 0.935546
v -1.186646 -0.130688 2.509836
v -1.076629 -0.280593 -1.963889
v -1.691439 -0.047159 -0.928645
v 0.888107 0.012721 -2.744299
v -0.133105 -0.152997 -3.142240
v 1.396191 0.878780 1.493347
v -0.605352 1.308832 2.495080
v -1.559975 1.200244 -0.004240
v -0.739075 0.788186 -3.187578
v 1.363235 1.193379 -1.975836
v 0.644605 1.395474 1.260592
v 1.054935 1.880879 -0.434968
v -0.768371 1.938797 0.772706
v -0.755661 1.851215 -1.103908
v 0.278176 1.780592 -1.721138
vn -0.1286 -0.9893 0.0682
vn 0.4389 -0.8804 -0.1799
vn -0.1853 -0.9811 0.0553
vn -0.1813 -0.9715 -0.1527
vn -0.0124 -0.9817 -0.1898
vn 0.9587 -0.2839 0.0141
vn -0.8660 -0.3111 0.3914
vn -0.9843 -0.0893 0.1525
vn -0.8408 -0.1328 -0.5249
vn 0.7202 -0.3076 -0.6219
vn 0.9201 0.0866 0.3820
vn -0.8837 -0.2792 0.3756
vn -0.9975 0.0490 -0.0502
vn -0.7781 -0.0370 -0.6270
vn 0.7491 -0.2809 -0.6000
vn 0.4993 0.8332 0.2375
vn -0.5872 0.7406 0.3265
vn -0.7645 0.6142 -0.1956
vn 0.0991 0.7908 -0.6039
vn 0.4168 0.8582 -0.2995
vn -0.2699 0.9588 0.0883
vn 0.3963 0.8653 -0.3068
vn 0.2842 0.7719 -0.5687
vn 0.1334 0.9848 0.1108
vn -0.2067 0.8709 -0.4459
vn -0.6782 0.6524 -0.3382
vn 0.2129 0.9761 -0.0441
vn -0.6607 0.7496 -0.0395
vn -0.7263 0.6812 0.0924
vn 0.3412 0.9383 0.0568
vn 0.2450 0.9178 0.3125
vn 0.1417 0.9671 0.2114
vn -0.2852 0.9375 0.1994
vn 0.4567 0.8199 0.3452
vn 0.7511 0.6308 0.1949
vn 0.2211 -0.2676 -0.9378
vn 0.7890 0.0791 -0.6093
vn 0.5692 0.2752 -0.7748
vn 0.3199 0.1610 -0.9337
vn -0.6687 -0.4587 -0.5851
vn -0.9065 -0.1608 -0.3905
vn -0.9684 0.2062 -0.1406
vn -0.9893 0.1386 -0.0464
vn -0.9851 0.1717 0.0010
vn -0.7205 0.2974 0.6265
vn -0.8344 0.3414 0.4327
vn -0.3360 0.6829 0.6487
vn 0.8494 0.2280 0.4760
vn 0.9169 0.1262 0.3787
vn 0.9320 0.2698 0.2418
vn 0.3375 0.1512 -0.9291
vn 0.3815 -0.1680 -0.9090
vn -0.3904 -0.3336 -0.8581
vn -0.8651 -0.1321 -0.4840
vn -0.8653 -0.1109 -0.4889
vn -0.8900 -0.1453 -0.4322
vn -0.9336 -0.0322 0.3568
vn -0.9333 0.0349 0.3573
vn -0.7607 -0.1263 0.6367
vn 0.7791 0.1381 0.6115
vn 0.7820 0.0822 0.6178
vn 0.8729 -0.0306 0.4869
vn 0.8456 -0.3973 -0.3566
vn 0.9515 -0.1275 -0.2801
vn 0.7811 -0.3147 -0.5394
vn 0.6600 -0.6369 -0.3985
vn 0.0624 -0.9443 -0.3231
vn -0.4936 -0.7236 -0.4824
vn -0.6103 -0.6759 -0.4132
vn -0.6294 -0.7022 -0.3328
vn -0.4132 -0.8034 -0.4288
vn -0.5259 -0.8466 0.0819
vn -0.3981 -0.9074 0.1346
vn -0.3183 -0.7970 0.5133
vn 0.5372 -0.6686 -0.5142
vn 0.4893 -0.8618 -0.1337
vn 0.0860 -0.9893 -0.1177
vn -0.8577 -0.4857 0.1685
vn -0.2222 -0.9693 -0.1055
vn 0.3889 -0.9211 0.0161
vt 0.181819 0.000000
vt 0.227273 0.078731
vt 0.136365 0.078731
vt 0.272728 0.157461
vt 0.318182 0.078731
vt 0.363637 0.157461
vt 0.909091 0.000000
vt 0.954545 0.078731
vt 0.863636 0.078731
vt 0.727273 0.000000
vt 0.772727 0.078731
vt 0.681818 0.078731
vt 0.545455 0.000000
vt 0.590909 0.078731
vt 0.500000 0.078731
vt 0.318182 0.236191
vt 0.090910 0.157461
vt 0.181819 0.157461
vt 0.136365 0.236191
vt 0.818182 0.157461
vt 0.909091 0.157461
vt 0.863636 0.236191
vt 0.636364 0.157461
vt 0.727273 0.157461
vt 0.681818 0.236191
vt 0.454546 0.157461
vt 0.545455 0.157461
vt 0.500000 0.236191
vt 0.227273 0.236191
vt 0.045455 0.236191
vt 0.772727 0.236191
vt 0.590909 0.236191
vt 0.409092 0.236191
vt 0.181819 0.314921
vt 0.272728 0.314921
vt 0.227273 0.393651
vt 0.000000 0.314921
vt 0.090910 0.314921
vt 0.045455 0.393651
vt 0.727273 0.314921
vt 0.818182 0.314921
vt 0.772727 0.393651
vt 0.545455 0.314921
vt 0.636364 0.314921
vt 0.590909 0.393651
vt 0.363637 0.314921
vt 0.454546 0.314921
vt 0.409092 0.393651
vt 0.500000 0.393651
vt 0.454546 0.472382
vt 0.681818 0.393651
vt 0.636364 0.472382
vt 0.863636 0.393651
vt 0.818182 0.472382
vt 0.909091 0.314921
vt 0.136365 0.393651
vt 0.090910 0.472382
vt 0.318182 0.393651
vt 0.272728 0.472382
vt 0.954545 0.236191
vt 1.000000 0.157461
vt 0.409092 0.078731
vt 0.363637 0.000000
s 0
f 1/1/1 14/2/1 13/3/1
f 2/4/2 14/5/2 16/6/2
f 1/7/3 13/8/3 18/9/3
f 1/10/4 18/11/4 20/12/4
f 1/13/5 20/14/5 17/15/5
f 2/4/6 16/6/6 23/16/6
f 3/17/7 15/18/7 25/19/7
f 4/20/8 19/21/8 27/22/8
f 5/23/9 21/24/9 29/25/9
f 6/26/10 22/27/10 31/28/10
f 2/4/11 23/16/11 26/29/11
f 3/17/12 25/19/12 28/30/12
f 4/20/13 27/22/13 30/31/13
f 5/23/14 29/25/14 32/32/14
f 6/26/15 31/28/15 24/33/15
f 7/34/16 33/35/16 38/36/16
f 8/37/17 34/38/17 40/39/17
f 9/40/18 35/41/18 41/42/18
f 10/43/19 36/44/19 42/45/19
f 11/46/20 37/47/20 39/48/20
f 39/48/21 42/49/21 12/50/21
f 39/48/22 37/47/22 42/49/22
f 37/47/23 10/43/23 42/49/23
f 42/45/24 41/51/24 12/52/24
f 42/45/25 36/44/25 41/51/25
f 36/44/26 9/40/26 41/51/26
f 41/42/27 40/53/27 12/54/27
f 41/42/28 35/41/28 40/53/28
f 35/41/29 8/55/29 40/53/29
f 40/39/30 38/56/30 12/57/30
f 40/39/31 34/38/31 38/56/31
f 34/38/32 7/34/32 38/56/32
f 38/36/33 39/58/33 12/59/33
f 38/36/34 33/35/34 39/58/34
f 33/35/35 11/46/35 39/58/35
f 24/33/36 37/47/36 11/46/36
f 24/33/37 31/28/37 37/47/37
f 31/28/38 10/43/38 37/47/38
f 32/32/39 36/44/39 10/43/39
f 32/32/40 29/25/40 36/44/40
f 29/25/41 9/40/41 36/44/41
f 30/31/42 35/41/42 9/40/42
f 30/31/43 27/22/43 35/41/43
f 27/22/44 8/55/44 35/41/44
f 28/30/45 34/38/45 8/37/45
f 28/30/46 25/19/46 34/38/46
f 25/19/47 7/34/47 34/38/47
f 26/29/48 33/35/48 7/34/48
f 26/29/49 23/16/49 33/35/49
f 23/16/50 11/46/50 33/35/50
f 31/28/51 32/32/51 10/43/51
f 31/28/52 22/27/52 32/32/52
f 22/27/53 5/23/53 32/32/53
f 29/25/54 30/31/54 9/40/54
f 29/25/55 21/24/55 30/31/55
f 21/24/56 4/20/56 30/31/56
f 27/22/57 28/60/57 8/55/57
f 27/22/58 19/21/58 28/60/58
f 19/21/59 3/61/59 28/60/59
f 25/19/60 26/29/60 7/34/60
f 25/19/61 15/18/61 26/29/61
f 15/18/62 2/4/62 26/29/62
f 23/16/63 24/33/63 11/46/63
f 23/16/64 16/6/64 24/33/64
f 16/6/65 6/26/65 24/33/65
f 17/15/66 22/27/66 6/26/66
f 17/15/67 20/14/67 22/27/67
f 20/14/68 5/23/68 22/27/68
f 20/12/69 21/24/69 5/23/69
f 20/12/70 18/11/70 21/24/70
f 18/11/71 4/20/71 21/24/71
f 18/9/72 19/21/72 4/20/72
f 18/9/73 13/8/73 19/21/73
f 13/8/74 3/61/74 19/21/74
f 16/6/75 17/62/75 6/26/75
f 16/6/76 14/5/76 17/62/76
f 14/5/77 1/63/77 17/62/77
f 13/3/78 15/18/78 3/17/78
f 13/3/79 14/2/79 15/18/79
f 14/2/80 2/4/80 15/18/80
