# Blender 4.3.2
# www.blender.org
mtllib Asteroide3.mtl
o Icosphere
v -0.116727 -2.379977 -0.114121
v 2.190521 -2.915717 2.522645
v -1.037810 -1.282826 2.959790
v -2.140898 -1.757534 -1.187169
v -0.646906 -1.383520 -2.409467
v 1.602065 -2.168037 -1.547990
v -0.389213 0.895643 4.315984
v -2.245543 0.852856 1.244098
v -1.486979 0.856049 -2.065810
v 0.400573 0.817969 -2.833027
v 2.187088 0.745174 -1.594788
v 0.010137 1.250857 -0.528195
v -0.593459 -2.239105 1.520245
v 1.307826 -3.277719 0.843444
v 0.529086 -2.036545 3.468824
v 1.953743 -2.217992 -0.486256
v 0.827982 -2.687771 -0.880605
v -1.216107 -2.212367 -0.448283
v -2.433296 -2.268178 1.389497
v -0.555919 -2.337370 -1.455489
v -1.658879 -1.224408 -1.930316
v 0.414595 -1.778656 -1.856915
v 2.221003 -0.803511 -0.000258
v 1.855418 -0.980837 -1.501922
v -1.232542 -0.907199 3.783427
v 0.593561 -0.563891 3.274127
v -2.425761 -0.208852 0.259248
v -2.340708 -0.501286 2.520196
v -1.382526 -0.597573 -3.018463
v -2.011072 -0.090566 -1.593100
v 0.927012 -1.128405 -2.973217
v -0.213380 -0.634016 -2.995911
v 2.072415 -0.261200 1.218881
v -1.316354 1.215310 3.061002
v -1.657071 0.930202 0.064563
v -0.772537 0.736129 -3.138492
v 1.301593 1.090548 -1.965137
v 0.483351 0.912509 1.327832
v 1.727983 0.934473 0.023406
v -0.496492 1.543335 1.094002
v -0.844171 1.814163 -1.232654
v 0.201299 1.592268 -1.811135
vn -0.4974 -0.8646 -0.0706
vn 0.6910 -0.6903 -0.2144
vn -0.1618 -0.9861 0.0378
vn -0.1566 -0.9875 0.0199
vn -0.2672 -0.9620 0.0569
vn 0.9828 -0.1474 -0.1115
vn -0.4865 -0.8326 0.2647
vn -0.9900 -0.0651 -0.1252
vn -0.3717 -0.7605 -0.5325
vn -0.1307 -0.8294 -0.5431
vn 0.8183 0.4359 0.3748
vn -0.5567 -0.7976 0.2321
vn -0.9759 0.0232 -0.2170
vn -0.0040 -0.6148 -0.7887
vn 0.8420 -0.1597 -0.5153
vn 0.5925 0.7858 0.1775
vn -0.3670 0.9302 0.0021
vn -0.7920 0.6047 -0.0843
vn 0.0974 0.8023 -0.5889
vn 0.3653 0.9309 -0.0053
vn 0.0904 0.9590 0.2687
vn 0.4129 0.9106 -0.0171
vn 0.2842 0.7900 -0.5432
vn 0.3492 0.8913 0.2892
vn -0.0890 0.8655 -0.4929
vn -0.5277 0.7307 -0.4332
vn 0.5405 0.8412 0.0171
vn -0.5791 0.7954 0.1791
vn -0.3736 0.9190 -0.1261
vn 0.5385 0.8425 0.0163
vn 0.4549 0.8281 0.3277
vn 0.2342 0.9694 0.0739
vn 0.1342 0.9804 0.1445
vn 0.5309 0.6707 0.5179
vn 0.8730 0.4469 0.1954
vn 0.3443 -0.1163 -0.9316
vn 0.8365 0.1033 -0.5382
vn 0.6395 0.2259 -0.7349
vn 0.2519 0.0021 -0.9678
vn 0.0162 -0.0970 -0.9952
vn -0.7764 0.3055 -0.5513
vn -0.8893 0.4491 -0.0866
vn -0.8311 0.5349 -0.1519
vn -0.7989 0.4763 -0.3673
vn -0.8478 0.3941 0.3549
vn -0.7024 0.2043 0.6818
vn -0.7691 0.1785 0.6137
vn 0.7982 0.1153 0.5913
vn 0.6531 -0.6592 0.3728
vn 0.9920 0.1003 0.0763
vn 0.0576 0.0872 -0.9945
vn -0.3139 -0.7507 -0.5813
vn 0.1394 -0.6590 -0.7391
vn -0.8532 0.2416 -0.4622
vn -0.9218 -0.1850 -0.3407
vn -0.8097 -0.0786 -0.5815
vn -0.9914 0.1194 0.0527
vn -0.9988 0.0261 0.0410
vn -0.5137 -0.4432 0.7346
vn 0.3153 -0.4015 0.8599
vn 0.2465 0.1164 0.9621
vn 0.5279 0.0886 0.8447
vn 0.9579 -0.1954 -0.2101
vn 0.9689 -0.1063 -0.2233
vn 0.9300 -0.1862 -0.3168
vn -0.0717 -0.7449 -0.6633
vn 0.1139 -0.7026 -0.7024
vn 0.1088 -0.6977 -0.7080
vn -0.4021 -0.6664 -0.6279
vn -0.6072 -0.7328 -0.3071
vn 0.0442 -0.8251 -0.5632
vn -0.2854 -0.9334 -0.2174
vn 0.0171 -0.9997 -0.0190
vn -0.0257 -0.8363 0.5476
vn 0.4329 -0.8823 -0.1849
vn 0.4688 -0.7876 -0.4000
vn -0.4344 -0.8824 -0.1810
vn -0.4975 -0.7855 0.3682
vn -0.3707 -0.8773 0.3048
vn -0.2806 -0.8972 0.3409
vt 0.181819 0.000000
vt 0.227273 0.078731
vt 0.136365 0.078731
vt 0.272728 0.157461
vt 0.318182 0.078731
vt 0.363637 0.157461
vt 0.909091 0.000000
vt 0.954545 0.078731
vt 0.863636 0.078731
vt 0.727273 0.000000
vt 0.772727 0.078731
vt 0.681818 0.078731
vt 0.545455 0.000000
vt 0.590909 0.078731
vt 0.500000 0.078731
vt 0.318182 0.236191
vt 0.090910 0.157461
vt 0.181819 0.157461
vt 0.136365 0.236191
vt 0.818182 0.157461
vt 0.909091 0.157461
vt 0.863636 0.236191
vt 0.636364 0.157461
vt 0.727273 0.157461
vt 0.681818 0.236191
vt 0.454546 0.157461
vt 0.545455 0.157461
vt 0.500000 0.236191
vt 0.227273 0.236191
vt 0.045455 0.236191
vt 0.772727 0.236191
vt 0.590909 0.236191
vt 0.409092 0.236191
vt 0.181819 0.314921
vt 0.272728 0.314921
vt 0.227273 0.393651
vt 0.000000 0.314921
vt 0.090910 0.314921
vt 0.045455 0.393651
vt 0.727273 0.314921
vt 0.818182 0.314921
vt 0.772727 0.393651
vt 0.545455 0.314921
vt 0.636364 0.314921
vt 0.590909 0.393651
vt 0.363637 0.314921
vt 0.454546 0.314921
vt 0.409092 0.393651
vt 0.500000 0.393651
vt 0.454546 0.472382
vt 0.681818 0.393651
vt 0.636364 0.472382
vt 0.863636 0.393651
vt 0.818182 0.472382
vt 0.909091 0.314921
vt 0.136365 0.393651
vt 0.090910 0.472382
vt 0.318182 0.393651
vt 0.272728 0.472382
vt 0.954545 0.236191
vt 1.000000 0.157461
vt 0.409092 0.078731
vt 0.363637 0.000000
s 0
f 1/1/1 14/2/1 13/3/1
f 2/4/2 14/5/2 16/6/2
f 1/7/3 13/8/3 18/9/3
f 1/10/4 18/11/4 20/12/4
f 1/13/5 20/14/5 17/15/5
f 2/4/6 16/6/6 23/16/6
f 3/17/7 15/18/7 25/19/7
f 4/20/8 19/21/8 27/22/8
f 5/23/9 21/24/9 29/25/9
f 6/26/10 22/27/10 31/28/10
f 2/4/11 23/16/11 26/29/11
f 3/17/12 25/19/12 28/30/12
f 4/20/13 27/22/13 30/31/13
f 5/23/14 29/25/14 32/32/14
f 6/26/15 31/28/15 24/33/15
f 7/34/16 33/35/16 38/36/16
f 8/37/17 34/38/17 40/39/17
f 9/40/18 35/41/18 41/42/18
f 10/43/19 36/44/19 42/45/19
f 11/46/20 37/47/20 39/48/20
f 39/48/21 42/49/21 12/50/21
f 39/48/22 37/47/22 42/49/22
f 37/47/23 10/43/23 42/49/23
f 42/45/24 41/51/24 12/52/24
f 42/45/25 36/44/25 41/51/25
f 36/44/26 9/40/26 41/51/26
f 41/42/27 40/53/27 12/54/27
f 41/42/28 35/41/28 40/53/28
f 35/41/29 8/55/29 40/53/29
f 40/39/30 38/56/30 12/57/30
f 40/39/31 34/38/31 38/56/31
f 34/38/32 7/34/32 38/56/32
f 38/36/33 39/58/33 12/59/33
f 38/36/34 33/35/34 39/58/34
f 33/35/35 11/46/35 39/58/35
f 24/33/36 37/47/36 11/46/36
f 24/33/37 31/28/37 37/47/37
f 31/28/38 10/43/38 37/47/38
f 32/32/39 36/44/39 10/43/39
f 32/32/40 29/25/40 36/44/40
f 29/25/41 9/40/41 36/44/41
f 30/31/42 35/41/42 9/40/42
f 30/31/43 27/22/43 35/41/43
f 27/22/44 8/55/44 35/41/44
f 28/30/45 34/38/45 8/37/45
f 28/30/46 25/19/46 34/38/46
f 25/19/47 7/34/47 34/38/47
f 26/29/48 33/35/48 7/34/48
f 26/29/49 23/16/49 33/35/49
f 23/16/50 11/46/50 33/35/50
f 31/28/51 32/32/51 10/43/51
f 31/28/52 22/27/52 32/32/52
f 22/27/53 5/23/53 32/32/53
f 29/25/54 30/31/54 9/40/54
f 29/25/55 21/24/55 30/31/55
f 21/24/56 4/20/56 30/31/56
f 27/22/57 28/60/57 8/55/57
f 27/22/58 19/21/58 28/60/58
f 19/21/59 3/61/59 28/60/59
f 25/19/60 26/29/60 7/34/60
f 25/19/61 15/18/61 26/29/61
f 15/18/62 2/4/62 26/29/62
f 23/16/63 24/33/63 11/46/63
f 23/16/64 16/6/64 24/33/64
f 16/6/65 6/26/65 24/33/65
f 17/15/66 22/27/66 6/26/66
f 17/15/67 20/14/67 22/27/67
f 20/14/68 5/23/68 22/27/68
f 20/12/69 21/24/69 5/23/69
f 20/12/70 18/11/70 21/24/70
f 18/11/71 4/20/71 21/24/71
f 18/9/72 19/21/72 4/20/72
f 18/9/73 13/8/73 19/21/73
f 13/8/74 3/61/74 19/21/74
f 16/6/75 17/62/75 6/26/75
f 16/6/76 14/5/76 17/62/76
f 14/5/77 1/63/77 17/62/77
f 13/3/78 15/18/78 3/17/78
f 13/3/79 14/2/79 15/18/79
f 14/2/80 2/4/80 15/18/80
